:SAMPLES-PER-SECOND 24
:FULLY-SPECIFIED
:DEGREES
434
root  2.02449 35.8446 32.9805 179.465 -33.047 174.901
RightUpLeg  -35.5666 -19.9416 -13.6729
RightLeg  50.1828 4.08198 4.96981
RightFoot  3.07583 -0.463488 3.82877
RightToes  -1.74623e-010 0 -2.59999e-017
Spine  10.9813 2.54893 -5.56038
Spine1  11.0483 2.71368 -2.76428
HEad  -29.528 -21.2809 11.7746
LeftShoulder1  2.17426 -3.49187 -24.9119
LeftArm  11.1599 -5.87814 -33.1674
LeftForeArm  61.7941 -78.5939 -61.3764
LeftHand  0.0643188 6.0569 13.8635
RightShoulder  3.34491 5.63647 30.7053
RightArm  -17.6152 -6.1026 27.09
RightForeArm  59.1119 77.3176 48.9575
RightHand  0.186762 -10.3448 -5.44433
LeftUpLeg  -3.81636 12.3571 1.86251
LeftLeg  43.1256 -1.50717 -1.11775
LeftFoot  -32.1843 -1.36569 -8.46117
LeftToes  -6.27559e-011 -2.10356e-011 8.24929e-012
435
root  2.09087 35.3681 32.5754 178.777 -27.4447 175.441
RightUpLeg  -39.4996 -24.0435 -7.75704
RightLeg  41.9737 2.15581 1.81518
RightFoot  4.22409 -0.270178 2.18118
RightToes  -1.74623e-010 0 -2.59999e-017
Spine  13.0535 2.67449 -5.26168
Spine1  9.81839 3.16468 -3.5768
HEad  -31.11 -18.0086 11.5589
LeftShoulder1  2.27471 -3.92562 -24.4175
LeftArm  11.6604 -11.8355 -37.0051
LeftForeArm  51.3152 -76.9872 -49.8757
LeftHand  -0.102032 4.59054 13.067
RightShoulder  3.25722 5.61298 29.8166
RightArm  -15.6822 -4.50045 31.6997
RightForeArm  59.5414 76.6806 44.3388
RightHand  0.259286 -9.39627 -8.49243
LeftUpLeg  -2.82429 16.9355 3.75215
LeftLeg  45.7459 -1.96146 -1.6905
LeftFoot  -34.928 -1.88484 -9.99565
LeftToes  -6.27559e-011 -2.10356e-011 8.24929e-012
436
root  2.03409 35.3514 31.6392 179.569 -21.9757 175.347
RightUpLeg  -43.221 -29.2124 0.272056
RightLeg  31.1762 4.94689 2.93426
RightFoot  4.40073 -0.109916 1.01088
RightToes  -1.74623e-010 0 -2.59999e-017
Spine  11.6497 1.9084 -7.42355
Spine1  9.73783 1.85838 -1.93805
HEad  -31.6928 -13.1226 9.47565
LeftShoulder1  2.32728 -4.03743 -24.6702
LeftArm  12.2572 -18.102 -40.0418
LeftForeArm  54.6798 -77.5451 -53.3442
LeftHand  -0.121987 4.37123 12.4437
RightShoulder  3.27122 5.67096 29.7424
RightArm  -11.1494 -5.43884 33.4933
RightForeArm  67.4836 78.1682 52.2747
RightHand  -0.0117647 -6.08622 -1.13035
LeftUpLeg  -0.0481538 20.3796 4.52206
LeftLeg  43.1784 -0.952093 -0.526825
LeftFoot  -35.6092 -2.34242 -11.8604
LeftToes  -6.27559e-011 -2.10356e-011 8.24929e-012
437
root  1.93585 35.7599 30.1111 -179.96 -16.2855 175.662
RightUpLeg  -44.157 -33.0865 8.68986
RightLeg  20.3382 7.58937 2.89897
RightFoot  4.07553 -0.235753 1.94708
RightToes  -1.74623e-010 0 -2.59999e-017
Spine  8.83663 0.403466 -8.73872
Spine1  9.77933 -0.000404538 -0.585688
HEad  -30.278 -7.52849 7.23703
LeftShoulder1  2.30297 -3.99612 -24.5087
LeftArm  13.468 -25.5914 -42.6882
LeftForeArm  60.0668 -78.1011 -56.1204
LeftHand  -0.122439 4.38828 12.7494
RightShoulder  3.38743 5.78328 30.577
RightArm  -6.94518 -9.88321 33.7873
RightForeArm  79.6291 79.6429 65.7941
RightHand  -0.0246884 -5.21905 6.9906
LeftUpLeg  5.9213 23.9013 6.38444
LeftLeg  36.3912 0.687191 0.935271
LeftFoot  -32.6061 -2.27751 -13.1304
LeftToes  -6.27559e-011 -2.10356e-011 8.24929e-012
438
root  1.83436 36.3818 27.8854 179.877 -10.2398 176.145
RightUpLeg  -38.5959 -28.5815 8.15038
RightLeg  13.779 -2.02958 1.50844
RightFoot  2.6727 0.0087583 0.063124
RightToes  -1.74623e-010 0 -2.59999e-017
Spine  5.45877 -2.03028 -9.54782
Spine1  8.39223 -2.7224 0.667608
HEad  -25.6074 0.027167 4.48785
LeftShoulder1  2.11786 -3.94191 -22.1215
LeftArm  12.789 -28.1984 -45.2815
LeftForeArm  69.9691 -79.0916 -64.1697
LeftHand  -0.180357 3.90105 13.257
RightShoulder  3.3585 5.7308 30.4686
RightArm  -2.35567 -16.5199 34.3581
RightForeArm  92.9636 80.3723 79.1143
RightHand  -0.184287 -7.46688 7.6958
LeftUpLeg  15.3911 27.6875 10.0371
LeftLeg  27.4254 -0.323696 0.154078
LeftFoot  -27.7138 -2.30046 -17.1622
LeftToes  -6.27559e-011 -2.10356e-011 8.24929e-012
439
root  1.81321 37.0016 25.2075 178.677 -4.17336 176.203
RightUpLeg  -33.4677 -23.379 6.91804
RightLeg  15.1685 -7.16889 -0.695514
RightFoot  2.24246 0.480507 -3.89211
RightToes  -1.74623e-010 0 -2.59999e-017
Spine  2.20074 -5.21387 -10.5331
Spine1  6.94156 -6.34915 3.21405
HEad  -20.3868 9.49382 0.299703
LeftShoulder1  1.98036 -3.82666 -20.6011
LeftArm  9.93914 -26.0377 -44.2553
LeftForeArm  86.718 -79.9848 -83.3152
LeftHand  -0.186327 4.09295 15.8845
RightShoulder  3.21833 5.57806 29.5197
RightArm  1.52496 -21.9258 33.1672
RightForeArm  106.54 80.4886 93.5283
RightHand  -0.194629 -9.02216 4.33488
LeftUpLeg  22.7341 26.8085 11.268
LeftLeg  23.6383 3.9668 2.20521
LeftFoot  -16.7732 -0.918155 -22.8219
LeftToes  -6.27559e-011 -2.10356e-011 8.24929e-012
440
root  1.95324 37.4463 22.5639 175.357 2.91335 175.599
RightUpLeg  -28.1042 -20.5513 6.81463
RightLeg  19.3681 -2.69217 -1.25287
RightFoot  3.24015 1.00852 -7.68377
RightToes  -1.74623e-010 0 -2.59999e-017
Spine  0.644215 -7.28857 -10.3279
Spine1  6.36518 -8.59332 4.77846
HEad  -16.6137 18.2644 -3.70975
LeftShoulder1  1.92144 -3.68655 -20.2857
LeftArm  8.13838 -22.6643 -41.2306
LeftForeArm  104.197 -79.7908 -102.032
LeftHand  -0.192409 4.35527 20.6936
RightShoulder  3.13493 5.48111 28.9621
RightArm  1.99251 -25 30.2036
RightForeArm  119.048 79.7497 109.705
RightHand  -0.116298 -9.67188 1.63405
LeftUpLeg  23.3506 22.3815 8.31732
LeftLeg  32.0635 11.8922 8.4976
LeftFoot  2.95689 2.36524 -19.4547
LeftToes  -6.27559e-011 -2.10356e-011 8.24929e-012
441
root  2.17566 37.6104 20.4275 170.981 11.9103 174.929
RightUpLeg  -21.6564 -13.9076 5.72949
RightLeg  22.5364 -0.380684 -0.391686
RightFoot  4.41361 1.57162 -11.0949
RightToes  -1.74623e-010 0 -2.59999e-017
Spine  1.02929 -7.42566 -7.72374
Spine1  6.25808 -8.33716 4.69117
HEad  -13.073 25.0333 -5.55087
LeftShoulder1  1.92221 -3.74158 -20.0802
LeftArm  8.57253 -18.6621 -39.2502
LeftForeArm  118.142 -79.0454 -115.083
LeftHand  -0.166481 4.59859 23.8114
RightShoulder  3.127 5.4732 28.9029
RightArm  0.453107 -25.2512 28.0056
RightForeArm  128.061 78.6153 121.23
RightHand  -0.00276996 -10.5201 -1.19124
LeftUpLeg  17.6983 20.727 5.37635
LeftLeg  48.2347 7.46806 9.29646
LeftFoot  17.1428 3.41899 -13.8355
LeftToes  -6.27559e-011 -2.10356e-011 8.24929e-012
442
root  2.36331 37.7999 18.6102 166.971 21.7483 173.036
RightUpLeg  -16.4697 -6.74209 4.78007
RightLeg  25.1351 1.49508 0.542727
RightFoot  4.59682 1.93192 -13.5039
RightToes  -1.74623e-010 0 -2.59999e-017
Spine  1.47646 -6.45216 -5.58444
Spine1  5.84891 -7.04058 4.86507
HEad  -9.52662 30.495 -6.40038
LeftShoulder1  2.04758 -3.92777 -21.1723
LeftArm  9.89248 -13.5764 -37.1483
LeftForeArm  130.227 -77.3014 -128.461
LeftHand  -0.0866028 4.99144 24.1013
RightShoulder  3.13997 5.46987 29.0647
RightArm  0.124575 -20.3347 27.4788
RightForeArm  130.961 78.2748 124.021
RightHand  0.0524056 -10.4973 -2.39017
LeftUpLeg  5.70858 21.3996 2.44604
LeftLeg  66.9888 0.13657 1.15067
LeftFoot  15.886 3.48127 -14.7607
LeftToes  -6.27559e-011 -2.10356e-011 8.24929e-012
443
root  2.32305 38.2744 16.917 162.274 31.6696 168.765
RightUpLeg  -11.8701 -2.24632 2.26261
RightLeg  26.5222 6.34501 3.20326
RightFoot  3.86546 1.99887 -14.6796
RightToes  -1.74623e-010 0 -2.59999e-017
Spine  1.75512 -4.78918 -3.31744
Spine1  5.52542 -5.29379 4.29109
HEad  -7.07256 35.2809 -8.50181
LeftShoulder1  2.23343 -4.04852 -23.3167
LeftArm  11.1206 -7.75893 -34.585
LeftForeArm  139.674 -74.47 -140.111
LeftHand  0.00478842 5.42988 23.7076
RightShoulder  3.19513 5.50502 29.5509
RightArm  1.78827 -10.1388 28.8248
RightForeArm  124.945 79.0757 117.335
RightHand  -0.0220951 -9.44714 -0.780791
LeftUpLeg  -10.3624 22.1283 -0.368614
LeftLeg  82.0256 -0.865556 -4.8288
LeftFoot  9.48298 3.00887 -16.5855
LeftToes  -6.27559e-011 -2.10356e-011 8.24929e-012
444
root  1.91689 38.9949 15.2357 153.424 42.0987 159.13
RightUpLeg  -8.13457 3.1062 -3.63704
RightLeg  26.967 12.5464 6.62882
RightFoot  3.13997 1.88202 -14.5465
RightToes  -1.74623e-010 0 -2.59999e-017
Spine  3.47964 -2.24554 1.67778
Spine1  5.40079 -1.80761 -0.928517
HEad  -6.44472 39.2893 -12.4456
LeftShoulder1  2.40343 -4.10041 -25.4504
LeftArm  12.3017 -2.12622 -32.7201
LeftForeArm  145.207 -72.1711 -146.27
LeftHand  -0.0100094 5.35624 24.2218
RightShoulder  3.30114 5.714 29.902
RightArm  5.06944 2.70734 32.4352
RightForeArm  105.391 80.1682 97.938
RightHand  -0.0475706 -7.54807 0.394534
LeftUpLeg  -25.9965 22.8517 -3.26361
LeftLeg  89.4633 -0.0858984 -7.62449
LeftFoot  5.95492 2.35068 -15.5761
LeftToes  -6.27559e-011 -2.10356e-011 8.24929e-012
445
root  1.21259 39.6625 13.5369 137.779 49.9424 141.206
RightUpLeg  -8.62206 8.2793 -12.7111
RightLeg  29.1094 15.1461 8.74417
RightFoot  2.75431 1.81173 -14.4085
RightToes  -1.74623e-010 0 -2.59999e-017
Spine  7.42212 0.211667 7.33235
Spine1  5.25486 2.74224 -9.61002
HEad  -8.07591 41.7323 -18.3113
LeftShoulder1  2.55393 -4.13036 -27.3668
LeftArm  13.5282 1.98576 -31.9737
LeftForeArm  145.951 -71.3237 -147.951
LeftHand  -0.178304 4.58269 25.1758
RightShoulder  3.28943 5.9439 28.8828
RightArm  9.84353 16.1322 38.1226
RightForeArm  72.5776 79.3076 66.5061
RightHand  -0.028804 -4.62913 -0.615756
LeftUpLeg  -40.4945 25.8946 -6.42309
LeftLeg  93.5842 0.966623 -12.5125
LeftFoot  0.910061 1.71945 -15.9869
LeftToes  -6.27559e-011 -2.10356e-011 8.24929e-012
446
root  0.472294 40.2106 11.8267 120.137 50.3398 120.353
RightUpLeg  -12.4831 3.06753 -22.9715
RightLeg  31.7432 11.4761 7.32503
RightFoot  2.5465 1.89993 -15.3487
RightToes  -1.74623e-010 0 -2.59999e-017
Spine  11.4079 1.43105 9.74473
Spine1  5.63394 6.13868 -17.0242
HEad  -10.7313 42.0346 -25.1384
LeftShoulder1  2.68056 -4.22377 -28.6362
LeftArm  15.3397 3.14851 -32.4935
LeftForeArm  143.345 -71.3175 -147.577
LeftHand  -0.277803 4.16308 25.9776
RightShoulder  3.00143 5.88759 25.9146
RightArm  14.397 27.0806 44.0277
RightForeArm  51.7719 76.57 46.6523
RightHand  -0.0883789 -1.50932 -2.42657
LeftUpLeg  -55.2863 31.7332 -11.8928
LeftLeg  97.412 2.36315 -15.6535
LeftFoot  -2.13883 1.58149 -19.269
LeftToes  -6.27559e-011 -2.10356e-011 8.24929e-012
447
root  -0.00968616 40.7332 10.0068 107.478 44.7356 104.278
RightUpLeg  -16.1536 -12.9794 -31.2966
RightLeg  30.1815 2.7917 1.59956
RightFoot  1.46618 1.73066 -15.2033
RightToes  -1.74623e-010 0 -2.59999e-017
Spine  13.4502 1.82443 10.2576
Spine1  5.9489 7.91847 -21.4384
HEad  -11.8603 41.9306 -30.3142
LeftShoulder1  2.75894 -4.35604 -29.0602
LeftArm  18.5409 1.9597 -33.2182
LeftForeArm  141.975 -71.0061 -147.928
LeftHand  -0.159752 4.71227 27.2302
RightShoulder  2.5418 5.41298 22.2742
RightArm  15.922 32.3213 46.43
RightForeArm  52.1572 76.617 46.9208
RightHand  -0.203506 0.25434 -4.24148
LeftUpLeg  -68.4114 38.0132 -20.0277
LeftLeg  102.562 4.75588 -18.6954
LeftFoot  -3.92066 1.47218 -22.1785
LeftToes  -6.27559e-011 -2.10356e-011 8.24929e-012
448
root  -0.0149506 41.0244 7.88904 99.4621 36.9378 91.9885
RightUpLeg  -23.9974 -37.1369 -33.124
RightLeg  25.3311 -1.68401 -1.59694
RightFoot  -0.782503 1.38142 -14.9086
RightToes  -1.74623e-010 0 -2.59999e-017
Spine  13.2343 2.17274 10.8781
Spine1  5.28107 8.51615 -24.2622
HEad  -12.1004 43.9753 -33.7265
LeftShoulder1  2.748 -4.4036 -28.7035
LeftArm  21.7349 1.10607 -32.6694
LeftForeArm  144.921 -69.6496 -150.521
LeftHand  -0.0552156 5.16042 28.0032
RightShoulder  2.18376 4.89794 19.5913
RightArm  14.0277 33.1058 43.762
RightForeArm  70.7994 79.2331 67.263
RightHand  -0.282274 0.497697 -5.64742
LeftUpLeg  -79.3916 45.5961 -27.5787
LeftLeg  109.743 10.7527 -25.502
LeftFoot  -5.73811 1.41079 -27.7904
LeftToes  -6.27559e-011 -2.10356e-011 8.24929e-012
